<mxfile host="app.diagrams.net" modified="2024-03-11T12:20:06.374Z" agent="Mozilla/5.0 (Windows NT 10.0; Win64; x64) AppleWebKit/537.36 (KHTML, like Gecko) Chrome/119.0.0.0 Safari/537.36" version="24.0.4" etag="y8m5WLzyf7E613LAydMY" type="github">
  <diagram name="PÃ¡gina-1" id="3_I5b9rcyFYHI2rdVjLL">
    <mxGraphModel>
      <root>
        <mxCell id="0" />
        <mxCell id="1" parent="0" />
      </root>
    </mxGraphModel>
  </diagram>
</mxfile>
